<svg width="50" height="50" viewBox="0 0 50 50" fill="none" xmlns="http://www.w3.org/2000/svg">
<path d="M47.9167 33.271C47.9167 41.3335 41.3959 47.8543 33.3334 47.8543L35.5209 44.2085" stroke="#46FF9B" stroke-width="2" stroke-linecap="round" stroke-linejoin="round"/>
<path d="M2.08337 16.6043C2.08337 8.54183 8.60421 2.021 16.6667 2.021L14.4792 5.66683" stroke="#46FF9B" stroke-width="2" stroke-linecap="round" stroke-linejoin="round"/>
<path d="M30.9375 31.9378C30.9375 39.0419 25.1875 44.7919 18.0833 44.7919C10.9791 44.7919 5.22913 39.0419 5.22913 31.9378C5.22913 24.8336 10.9791 19.0835 18.0833 19.0835C18.4166 19.0835 18.7291 19.1044 19.0833 19.1252C25.3958 19.6044 30.4375 24.646 30.9166 30.9585C30.9166 31.271 30.9375 31.5836 30.9375 31.9378Z" stroke="#46FF9B" stroke-width="2" stroke-miterlimit="10" stroke-linecap="round" stroke-linejoin="round"/>
<path d="M44.7915 18.0626C44.7915 25.1668 39.0415 30.9169 31.9373 30.9169H30.9165C30.4373 24.6044 25.3956 19.5626 19.0831 19.0834V18.0626C19.0831 10.9585 24.8331 5.2085 31.9373 5.2085C39.0415 5.2085 44.7915 10.9585 44.7915 18.0626Z" stroke="#46FF9B" stroke-width="2" stroke-miterlimit="10" stroke-linecap="round" stroke-linejoin="round"/>
</svg>
