<svg width="50" height="50" viewBox="0 0 50 50" fill="none" xmlns="http://www.w3.org/2000/svg">
<path d="M19.7917 28.6463C19.7917 30.6671 21.3543 32.2921 23.2709 32.2921H27.1876C28.8542 32.2921 30.2084 30.8755 30.2084 29.1046C30.2084 27.2088 29.3751 26.5213 28.1459 26.0838L21.8751 23.8963C20.6459 23.4588 19.8126 22.7922 19.8126 20.8755C19.8126 19.1255 21.1667 17.688 22.8334 17.688H26.7501C28.6667 17.688 30.2293 19.313 30.2293 21.3338" stroke="#46FF9B" stroke-width="2" stroke-linecap="round" stroke-linejoin="round"/>
<path d="M25 15.625V34.375" stroke="#46FF9B" stroke-width="2" stroke-linecap="round" stroke-linejoin="round"/>
<path d="M45.8334 24.9998C45.8334 36.4998 36.5001 45.8332 25.0001 45.8332C13.5001 45.8332 4.16675 36.4998 4.16675 24.9998C4.16675 13.4998 13.5001 4.1665 25.0001 4.1665" stroke="#46FF9B" stroke-width="2" stroke-linecap="round" stroke-linejoin="round"/>
<path d="M35.4167 6.25V14.5833H43.7501" stroke="#46FF9B" stroke-width="2" stroke-linecap="round" stroke-linejoin="round"/>
<path d="M45.8334 4.1665L35.4167 14.5832" stroke="#46FF9B" stroke-width="2" stroke-linecap="round" stroke-linejoin="round"/>
</svg>
