<svg width="222" height="184" viewBox="0 0 222 184" fill="none" xmlns="http://www.w3.org/2000/svg">
<mask id="path-1-inside-1_140_8405" fill="white">
<path fill-rule="evenodd" clip-rule="evenodd" d="M39.3123 62.4376C39.3123 38.2026 59.0148 18.5001 83.2498 18.5001C107.485 18.5001 127.187 38.2026 127.187 62.4376C127.095 86.2101 108.502 105.45 84.8223 106.283H84.6373H84.1748C83.6198 106.19 82.8798 106.19 82.1398 106.283C57.9048 105.45 39.3123 86.2101 39.3123 62.4376ZM36.3521 130.887C62.3446 113.682 104.432 113.682 130.24 130.887C141.895 138.657 148.277 149.202 148.37 160.58C148.37 172.05 141.895 182.595 130.24 190.457C117.29 199.152 100.27 203.5 83.2496 203.5C66.2296 203.5 49.2096 199.152 36.2596 190.457C24.6046 182.687 18.1296 172.142 18.1296 160.765C18.1296 149.387 24.6046 138.75 36.3521 130.887ZM184.907 67.8947C186.387 85.8397 173.622 101.565 155.955 103.692H155.77H155.492C154.937 103.692 154.382 103.692 153.92 103.877C144.947 104.34 136.715 101.472 130.517 96.1997C140.045 87.6897 145.502 74.9247 144.392 61.0497C143.745 53.5572 141.155 46.7122 137.27 40.8847C140.785 39.1272 144.855 38.0172 149.017 37.6472C167.147 36.0747 183.335 49.5797 184.907 67.8947ZM187.312 175.473C196.932 170.2 202.667 162.43 203.407 153.458C204.24 144.578 199.892 135.975 191.382 129.13C175.565 116.365 149.85 112.388 129.407 118.308C137.27 121.175 144.485 125.06 150.682 129.963C161.597 138.75 167.055 149.758 166.13 161.228C165.39 169.183 161.505 176.675 154.845 182.688C166.407 182.965 178.062 180.56 187.312 175.473Z"/>
</mask>
<path d="M127.187 62.4376L129.109 62.4451V62.4376H127.187ZM84.8223 106.283V108.205H84.8561L84.8899 108.203L84.8223 106.283ZM84.1748 106.283L83.8588 108.179L84.0158 108.205H84.1748V106.283ZM82.1398 106.283L82.0738 108.204L82.2266 108.209L82.3782 108.19L82.1398 106.283ZM130.24 130.887L131.306 129.288L130.24 130.887ZM36.3521 130.887L35.2912 129.284L35.2831 129.29L36.3521 130.887ZM148.37 160.58H150.292V160.572L150.292 160.564L148.37 160.58ZM130.24 190.457L131.311 192.053L131.315 192.051L130.24 190.457ZM36.2596 190.457L37.3311 188.862L37.3258 188.858L36.2596 190.457ZM155.955 103.692V105.614H156.07L156.185 105.601L155.955 103.692ZM184.907 67.8947L186.823 67.7367L186.822 67.7303L184.907 67.8947ZM153.92 103.877L154.019 105.797L154.337 105.78L154.634 105.662L153.92 103.877ZM130.517 96.1997L129.237 94.7662L127.593 96.235L129.272 97.6637L130.517 96.1997ZM144.392 61.0497L146.308 60.8965L146.307 60.8842L144.392 61.0497ZM137.27 40.8847L136.41 39.1656L134.463 40.1393L135.671 41.9509L137.27 40.8847ZM149.017 37.6472L148.851 35.7323L148.847 35.7327L149.017 37.6472ZM203.407 153.458L201.494 153.279L201.493 153.289L201.492 153.3L203.407 153.458ZM187.312 175.473L186.389 173.787L186.386 173.789L187.312 175.473ZM191.382 129.13L190.175 130.626L190.178 130.628L191.382 129.13ZM129.407 118.308L128.873 116.462L123.222 118.098L128.749 120.114L129.407 118.308ZM150.682 129.963L151.888 128.466L151.881 128.461L151.875 128.455L150.682 129.963ZM166.13 161.228L168.044 161.406L168.045 161.394L168.046 161.382L166.13 161.228ZM154.845 182.688L153.557 181.261L149.976 184.494L154.799 184.609L154.845 182.688ZM83.2498 16.578C57.9533 16.578 37.3903 37.1411 37.3903 62.4376H41.2344C41.2344 39.2641 60.0764 20.4222 83.2498 20.4222V16.578ZM129.109 62.4376C129.109 37.1411 108.546 16.578 83.2498 16.578V20.4222C106.423 20.4222 125.265 39.2641 125.265 62.4376H129.109ZM84.8899 108.203C109.607 107.335 129.013 87.2445 129.109 62.4451L125.265 62.4301C125.177 85.1757 107.398 103.566 84.7548 104.362L84.8899 108.203ZM84.6373 108.205H84.8223V104.361H84.6373V108.205ZM84.1748 108.205H84.6373V104.361H84.1748V108.205ZM82.3782 108.19C82.9899 108.113 83.5356 108.125 83.8588 108.179L84.4908 104.387C83.7041 104.256 82.7697 104.267 81.9014 104.375L82.3782 108.19ZM37.3903 62.4376C37.3903 87.2594 56.8172 107.336 82.0738 108.204L82.2058 104.362C58.9925 103.564 41.2344 85.1607 41.2344 62.4376H37.3903ZM131.306 129.288C118.021 120.432 100.655 116.061 83.3653 116.061C66.075 116.061 48.6654 120.432 35.2912 129.285L37.413 132.49C50.0313 124.138 66.6618 119.906 83.3653 119.906C100.069 119.906 116.651 124.138 129.173 132.487L131.306 129.288ZM150.292 160.564C150.193 148.407 143.36 137.324 131.306 129.288L129.173 132.487C140.429 139.99 146.361 149.998 146.448 160.595L150.292 160.564ZM131.315 192.051C143.352 183.93 150.292 172.848 150.292 160.58H146.448C146.448 171.251 140.437 181.259 129.165 188.864L131.315 192.051ZM83.2496 205.422C100.566 205.422 117.98 201.004 131.311 192.053L129.168 188.862C116.599 197.301 99.9734 201.578 83.2496 201.578V205.422ZM35.1882 192.053C48.5192 201.004 65.9334 205.422 83.2496 205.422V201.578C66.5258 201.578 49.9001 197.301 37.3311 188.862L35.1882 192.053ZM16.2076 160.765C16.2076 172.943 23.15 184.028 35.1935 192.057L37.3258 188.858C26.0593 181.347 20.0517 171.342 20.0517 160.765H16.2076ZM35.2831 129.29C23.1473 137.412 16.2076 148.589 16.2076 160.765H20.0517C20.0517 150.185 26.062 140.087 37.4212 132.485L35.2831 129.29ZM156.185 105.601C174.891 103.348 188.387 86.6985 186.823 67.7367L182.992 68.0527C184.388 84.9809 172.353 99.7816 155.725 101.784L156.185 105.601ZM155.77 105.614H155.955V101.77H155.77V105.614ZM155.492 105.614H155.77V101.77H155.492V105.614ZM154.634 105.662C154.626 105.665 154.676 105.644 154.838 105.63C155.006 105.616 155.198 105.614 155.492 105.614V101.77C155.035 101.77 154.079 101.744 153.206 102.093L154.634 105.662ZM129.272 97.6637C135.853 103.263 144.57 106.284 154.019 105.797L153.821 101.958C145.324 102.396 137.576 99.6816 131.763 94.7358L129.272 97.6637ZM142.476 61.203C143.538 74.4716 138.322 86.6518 129.237 94.7662L131.798 97.6332C141.768 88.7276 147.467 75.3779 146.308 60.8965L142.476 61.203ZM135.671 41.9509C139.388 47.5276 141.86 54.0657 142.477 61.2152L146.307 60.8842C145.63 53.0488 142.921 45.8969 138.869 39.8186L135.671 41.9509ZM148.847 35.7327C144.466 36.1222 140.159 37.2913 136.41 39.1656L138.129 42.6039C141.411 40.9632 145.244 39.9123 149.188 39.5618L148.847 35.7327ZM186.822 67.7303C185.159 48.3549 168.037 34.0682 148.851 35.7323L149.183 39.5621C166.257 38.0812 181.511 50.8045 182.992 68.0592L186.822 67.7303ZM201.492 153.3C200.818 161.474 195.594 168.742 186.389 173.787L188.236 177.158C198.27 171.659 204.517 163.387 205.323 153.616L201.492 153.3ZM190.178 130.628C198.332 137.187 202.25 145.209 201.494 153.279L205.321 153.637C206.23 143.947 201.453 134.764 192.587 127.633L190.178 130.628ZM129.942 120.154C149.871 114.383 174.915 118.311 190.175 130.626L192.59 127.635C176.215 114.42 149.829 110.393 128.873 116.462L129.942 120.154ZM151.875 128.455C145.496 123.41 138.096 119.431 130.066 116.502L128.749 120.114C136.444 122.92 143.473 126.711 149.49 131.47L151.875 128.455ZM168.046 161.382C169.034 149.133 163.173 137.551 151.888 128.466L149.477 131.46C160.022 139.95 165.076 150.383 164.214 161.073L168.046 161.382ZM156.133 184.115C163.113 177.813 167.255 169.889 168.044 161.406L164.216 161.05C163.525 168.477 159.897 175.538 153.557 181.261L156.133 184.115ZM186.386 173.789C177.489 178.682 166.183 181.037 154.891 180.766L154.799 184.609C166.632 184.893 178.636 182.438 188.239 177.157L186.386 173.789Z" fill="#46FF9B" mask="url(#path-1-inside-1_140_8405)"/>
</svg>
